<?xml version="1.0" encoding="utf-8"?>
<!-- Generator: Adobe Illustrator 16.0.0, SVG Export Plug-In . SVG Version: 6.00 Build 0)  -->
<!DOCTYPE svg PUBLIC "-//W3C//DTD SVG 1.1//EN" "http://www.w3.org/Graphics/SVG/1.1/DTD/svg11.dtd">
<svg version="1.1" id="Layer_1" xmlns="http://www.w3.org/2000/svg" xmlns:xlink="http://www.w3.org/1999/xlink" x="0px" y="0px"
	 width="30.9px" height="26.93px" viewBox="0 0 30.9 26.93" enable-background="new 0 0 30.9 26.93" xml:space="preserve">
<path fill="#00C73C" d="M-1.661-1.443v33.94h34.224v-33.94H-1.661z"/>
<g>
	<path fill="#FFFFFF" d="M21.964,18.821l-2.561-2.57c0.679-0.978,1.081-2.169,1.081-3.457c0-3.313-2.634-6-5.881-6
		c-3.249,0-5.881,2.687-5.881,6c0,2.847,1.946,5.225,4.556,5.838l0.074-0.979c-2.104-0.57-3.662-2.529-3.662-4.86
		c0-2.775,2.204-5.033,4.914-5.033s4.914,2.258,4.914,5.033c0,1.545-0.687,2.931-1.763,3.855l1.41,1.56l1.711,1.718
		c0.293,0.289,0.773,0.275,1.074-0.03C22.25,19.593,22.256,19.111,21.964,18.821z"/>
	<circle fill="#FFFFFF" cx="15.466" cy="17.875" r="0.681"/>
</g>
</svg>
